<svg xmlns="http://www.w3.org/2000/svg" xmlns:xlink="http://www.w3.org/1999/xlink" width="300" zoomAndPan="magnify" viewBox="0 0 224.87999 37.5" height="50" preserveAspectRatio="xMidYMid meet" version="1.2"><defs><clipPath id="399e065274"><path d="M 1.421875 0 L 223.339844 0 L 223.339844 37.007812 L 1.421875 37.007812 Z M 1.421875 0 "/></clipPath><clipPath id="c2797b8f7e"><path d="M 186.820312 1.726562 L 220.125 1.726562 L 220.125 35.03125 L 186.820312 35.03125 Z M 186.820312 1.726562 "/></clipPath></defs><g id="579702e729"><g clip-rule="nonzero" clip-path="url(#399e065274)"><path style=" stroke:none;fill-rule:nonzero;fill:#ffffff;fill-opacity:1;" d="M 1.421875 0 L 223.460938 0 L 223.460938 37.007812 L 1.421875 37.007812 Z M 1.421875 0 "/><path style=" stroke:none;fill-rule:nonzero;fill:#ffffff;fill-opacity:1;" d="M 1.421875 0 L 223.460938 0 L 223.460938 37.007812 L 1.421875 37.007812 Z M 1.421875 0 "/></g><g clip-rule="nonzero" clip-path="url(#c2797b8f7e)"><path style=" stroke:none;fill-rule:evenodd;fill:#000000;fill-opacity:1;" d="M 204.742188 22.589844 L 216.367188 22.589844 L 216.367188 21.71875 L 204.742188 21.71875 Z M 202.257812 16.488281 C 202.828125 16.488281 203.300781 17.441406 203.378906 18.679688 L 203.667969 18.679688 C 203.582031 17.285156 202.980469 16.203125 202.257812 16.203125 L 199.570312 16.671875 L 199.566406 16.671875 C 199.121094 17.394531 198.855469 18.304688 198.855469 19.300781 C 198.855469 20.347656 199.148438 21.308594 199.640625 22.046875 L 202.257812 21.863281 C 202.6875 21.863281 203.074219 21.484375 203.332031 20.882812 C 203.332031 20.527344 203.332031 20.148438 203.328125 19.851562 C 203.179688 20.855469 202.753906 21.578125 202.257812 21.578125 C 201.632812 21.578125 201.125 20.4375 201.125 19.035156 C 201.125 17.628906 201.632812 16.488281 202.257812 16.488281 Z M 207.789062 10.667969 L 206.4375 10.667969 L 206.4375 12.222656 L 207.789062 12.222656 Z M 206.03125 12.222656 L 206.03125 10.664062 L 204.675781 10.664062 L 204.675781 12.222656 Z M 190.046875 17.910156 C 190.339844 17.722656 190.679688 17.585938 191.054688 17.523438 L 192.511719 17.265625 L 192.511719 6.582031 L 193.699219 6.289062 L 193.699219 17.058594 L 196.164062 16.628906 L 196.164062 5.679688 L 197.351562 5.386719 L 197.351562 16.421875 L 199.816406 15.992188 L 199.816406 4.78125 L 201.003906 4.488281 L 201.003906 15.785156 L 201.855469 15.636719 L 201.871094 15.632812 L 201.90625 15.621094 L 201.941406 15.613281 L 201.960938 15.609375 L 201.996094 15.601562 L 202.015625 15.597656 L 202.042969 15.59375 L 202.082031 15.585938 L 202.097656 15.585938 L 202.113281 15.582031 L 202.152344 15.578125 L 202.179688 15.578125 L 202.1875 15.574219 L 202.253906 15.574219 C 202.761719 15.574219 203.164062 15.839844 203.46875 16.199219 L 203.46875 3.878906 L 215.027344 6.730469 L 215.027344 16.683594 L 216.015625 16.683594 L 216.015625 6.972656 L 220.125 7.988281 L 212.507812 5.128906 L 212.507812 3.921875 L 211.222656 3.921875 L 211.222656 4.644531 L 203.472656 1.738281 L 203.277344 1.808594 L 201.003906 2.664062 L 186.820312 7.988281 L 190.046875 7.191406 Z M 213.308594 16.398438 L 213.308594 10.417969 L 209.765625 10.417969 L 209.765625 16.398438 Z M 212.402344 13.246094 C 212.589844 13.246094 212.742188 13.398438 212.742188 13.582031 C 212.742188 13.769531 212.589844 13.921875 212.402344 13.921875 C 212.214844 13.921875 212.0625 13.769531 212.0625 13.582031 C 212.0625 13.398438 212.214844 13.246094 212.402344 13.246094 Z M 206.4375 14.265625 L 207.789062 14.265625 L 207.789062 12.707031 L 206.4375 12.707031 Z M 204.742188 20.371094 L 216.367188 20.371094 L 216.367188 19.5 L 204.742188 19.5 Z M 191.621094 18.058594 L 191.164062 18.140625 C 190.675781 18.226562 190.226562 18.480469 189.90625 18.859375 C 189.5625 19.273438 189.378906 19.800781 189.378906 20.386719 C 189.378906 21.0625 189.671875 21.765625 190.125 22.183594 C 190.46875 22.503906 190.898438 22.652344 191.359375 22.621094 L 191.875 22.585938 C 191.46875 21.882812 191.230469 21.011719 191.230469 20.066406 C 191.230469 19.339844 191.371094 18.65625 191.621094 18.058594 Z M 204.742188 18.152344 L 216.367188 18.152344 L 216.367188 17.28125 L 204.742188 17.28125 Z M 206.03125 12.707031 L 204.675781 12.707031 L 204.675781 14.265625 L 206.03125 14.265625 Z M 203.859375 21.914062 L 203.851562 19.035156 L 203.851562 18.867188 L 202.597656 18.867188 C 202.59375 18.824219 202.585938 18.777344 202.574219 18.738281 C 202.574219 18.734375 202.574219 18.734375 202.574219 18.734375 C 202.566406 18.714844 202.5625 18.699219 202.558594 18.679688 C 202.558594 18.679688 202.558594 18.679688 202.558594 18.675781 C 202.546875 18.648438 202.539062 18.625 202.527344 18.597656 C 202.527344 18.597656 202.527344 18.59375 202.527344 18.59375 C 202.519531 18.578125 202.515625 18.566406 202.507812 18.554688 C 202.507812 18.550781 202.503906 18.546875 202.503906 18.542969 C 202.496094 18.53125 202.492188 18.519531 202.484375 18.507812 C 202.480469 18.507812 202.480469 18.503906 202.480469 18.503906 C 202.476562 18.496094 202.472656 18.492188 202.46875 18.484375 C 202.464844 18.480469 202.464844 18.480469 202.460938 18.476562 C 202.457031 18.46875 202.449219 18.457031 202.445312 18.453125 C 202.441406 18.449219 202.4375 18.445312 202.433594 18.441406 C 202.429688 18.4375 202.425781 18.429688 202.421875 18.425781 C 202.414062 18.421875 202.410156 18.417969 202.40625 18.410156 C 202.402344 18.410156 202.398438 18.40625 202.394531 18.402344 C 202.390625 18.398438 202.382812 18.390625 202.378906 18.386719 C 202.375 18.386719 202.371094 18.382812 202.367188 18.382812 C 202.363281 18.378906 202.355469 18.375 202.351562 18.371094 C 202.347656 18.371094 202.347656 18.367188 202.34375 18.367188 C 202.335938 18.363281 202.328125 18.359375 202.320312 18.359375 C 202.320312 18.355469 202.316406 18.355469 202.3125 18.355469 C 202.304688 18.351562 202.296875 18.351562 202.289062 18.347656 C 202.289062 18.347656 202.285156 18.347656 202.28125 18.347656 C 202.273438 18.347656 202.265625 18.347656 202.257812 18.347656 C 202.25 18.347656 202.246094 18.347656 202.238281 18.347656 C 202.050781 18.363281 201.90625 18.664062 201.90625 19.035156 C 201.90625 19.414062 202.0625 19.722656 202.253906 19.722656 C 202.265625 19.722656 202.273438 19.722656 202.285156 19.71875 C 202.285156 19.71875 202.285156 19.71875 202.289062 19.71875 C 202.296875 19.71875 202.304688 19.714844 202.3125 19.714844 C 202.316406 19.710938 202.316406 19.710938 202.320312 19.710938 C 202.328125 19.707031 202.335938 19.703125 202.34375 19.699219 C 202.347656 19.699219 202.347656 19.699219 202.351562 19.699219 C 202.355469 19.695312 202.363281 19.691406 202.367188 19.6875 C 202.371094 19.683594 202.375 19.683594 202.375 19.683594 C 202.382812 19.675781 202.390625 19.671875 202.394531 19.667969 C 202.398438 19.664062 202.402344 19.660156 202.40625 19.65625 C 202.410156 19.652344 202.417969 19.644531 202.421875 19.640625 C 202.425781 19.636719 202.429688 19.632812 202.433594 19.628906 C 202.4375 19.625 202.441406 19.621094 202.445312 19.617188 C 202.449219 19.609375 202.453125 19.605469 202.457031 19.597656 C 202.460938 19.59375 202.464844 19.585938 202.46875 19.582031 C 202.472656 19.578125 202.476562 19.570312 202.480469 19.566406 C 202.484375 19.558594 202.488281 19.550781 202.492188 19.542969 C 202.496094 19.539062 202.5 19.53125 202.503906 19.523438 C 202.503906 19.519531 202.507812 19.515625 202.507812 19.511719 C 202.515625 19.503906 202.519531 19.492188 202.523438 19.480469 C 202.523438 19.476562 202.527344 19.472656 202.527344 19.46875 C 202.539062 19.445312 202.546875 19.417969 202.554688 19.394531 C 202.554688 19.390625 202.558594 19.386719 202.558594 19.382812 C 202.5625 19.371094 202.566406 19.355469 202.570312 19.339844 C 202.570312 19.335938 202.574219 19.332031 202.574219 19.328125 C 202.578125 19.3125 202.582031 19.292969 202.585938 19.273438 C 202.585938 19.273438 202.585938 19.273438 202.585938 19.269531 C 202.589844 19.261719 202.589844 19.25 202.589844 19.238281 C 202.589844 19.238281 202.589844 19.238281 202.589844 19.234375 C 202.59375 19.222656 202.59375 19.210938 202.597656 19.199219 L 203.515625 19.199219 L 203.523438 21.914062 L 203.523438 21.917969 L 203.527344 22.046875 C 203.527344 22.351562 203.527344 22.5 203.480469 22.5625 C 203.4375 22.621094 203.300781 22.660156 203.035156 22.734375 L 202.847656 22.789062 L 197.894531 24.242188 L 197.890625 24.242188 C 197.753906 24.28125 197.683594 24.300781 197.613281 24.320312 C 197.238281 24.429688 197.039062 24.484375 196.910156 24.644531 C 196.765625 24.824219 196.765625 25.0625 196.765625 25.566406 L 196.765625 27.179688 C 196.398438 27.253906 196.117188 27.582031 196.117188 27.964844 L 196.117188 34.21875 C 196.117188 34.660156 196.484375 35.019531 196.933594 35.019531 L 196.96875 35.019531 C 197.417969 35.019531 197.785156 34.660156 197.785156 34.21875 L 197.785156 27.964844 C 197.785156 27.570312 197.488281 27.234375 197.101562 27.171875 L 197.101562 25.566406 C 197.101562 25.140625 197.101562 24.941406 197.171875 24.851562 C 197.238281 24.773438 197.398438 24.726562 197.707031 24.640625 C 197.804688 24.609375 197.921875 24.578125 197.988281 24.558594 L 202.945312 23.105469 L 203.128906 23.050781 C 203.464844 22.953125 203.636719 22.90625 203.75 22.761719 C 203.867188 22.613281 203.863281 22.425781 203.863281 22.042969 Z M 194.941406 17.480469 L 192.824219 17.851562 C 192.546875 18.46875 192.390625 19.183594 192.390625 19.949219 C 192.390625 20.910156 192.640625 21.792969 193.058594 22.503906 L 195.042969 22.367188 C 194.628906 21.660156 194.386719 20.78125 194.386719 19.828125 C 194.386719 18.960938 194.589844 18.152344 194.941406 17.480469 Z M 198.464844 22.128906 C 197.964844 21.386719 197.660156 20.417969 197.660156 19.359375 C 197.660156 18.441406 197.890625 17.589844 198.277344 16.898438 L 196.035156 17.289062 C 195.671875 17.96875 195.457031 18.792969 195.457031 19.683594 C 195.457031 20.667969 195.71875 21.570312 196.15625 22.289062 Z M 198.464844 22.128906 "/></g><g style="fill:#000000;fill-opacity:1;"><g transform="translate(5.120916, 25.884358)"><path style="stroke:none" d="M 18.8125 0 L 17.828125 -12.40625 L 17.703125 -12.40625 L 13.421875 -0.125 L 10.578125 -0.125 L 6.296875 -12.40625 L 6.15625 -12.40625 L 5.171875 0 L 0.40625 0 L 2.28125 -20.921875 L 7.359375 -20.921875 L 12 -8.84375 L 16.640625 -20.921875 L 21.703125 -20.921875 L 23.578125 0 Z M 18.8125 0 "/></g></g><g style="fill:#000000;fill-opacity:1;"><g transform="translate(27.837041, 25.884358)"><path style="stroke:none" d="M 2.40625 -1.609375 C 1.1875 -2.929688 0.578125 -4.554688 0.578125 -6.484375 C 0.578125 -8.421875 1.1875 -10.054688 2.40625 -11.390625 C 3.625 -12.722656 5.171875 -13.390625 7.046875 -13.390625 C 8.773438 -13.390625 10.195312 -12.847656 11.3125 -11.765625 L 11.3125 -13.015625 L 15.796875 -13.015625 L 15.796875 0 L 11.359375 0 L 11.359375 -1.46875 L 11.3125 -1.46875 C 10.195312 -0.238281 8.773438 0.375 7.046875 0.375 C 5.171875 0.375 3.625 -0.285156 2.40625 -1.609375 Z M 6.21875 -8.703125 C 5.632812 -8.128906 5.34375 -7.390625 5.34375 -6.484375 C 5.34375 -5.585938 5.625 -4.859375 6.1875 -4.296875 C 6.75 -3.734375 7.484375 -3.453125 8.390625 -3.453125 C 9.273438 -3.453125 10 -3.738281 10.5625 -4.3125 C 11.125 -4.882812 11.40625 -5.609375 11.40625 -6.484375 C 11.40625 -7.390625 11.113281 -8.128906 10.53125 -8.703125 C 9.945312 -9.273438 9.234375 -9.5625 8.390625 -9.5625 C 7.523438 -9.5625 6.800781 -9.273438 6.21875 -8.703125 Z M 6.21875 -8.703125 "/></g></g><g style="fill:#000000;fill-opacity:1;"><g transform="translate(43.885376, 25.884358)"><path style="stroke:none" d="M 0.9375 3.1875 L 4.609375 1.390625 C 5.285156 2.503906 6.460938 3.0625 8.140625 3.0625 C 8.921875 3.0625 9.644531 2.8125 10.3125 2.3125 C 10.976562 1.820312 11.3125 1.0625 11.3125 0.03125 L 11.3125 -0.9375 C 10.519531 -0.0625 9.097656 0.375 7.046875 0.375 C 5.171875 0.375 3.625 -0.285156 2.40625 -1.609375 C 1.1875 -2.929688 0.578125 -4.554688 0.578125 -6.484375 C 0.578125 -8.421875 1.1875 -10.054688 2.40625 -11.390625 C 3.625 -12.722656 5.171875 -13.390625 7.046875 -13.390625 C 8.722656 -13.390625 10.117188 -12.875 11.234375 -11.84375 L 11.3125 -11.84375 L 11.3125 -13.015625 L 15.796875 -13.015625 L 15.796875 0.359375 C 15.796875 2.472656 15.09375 4.101562 13.6875 5.25 C 12.289062 6.394531 10.441406 6.96875 8.140625 6.96875 C 4.421875 6.96875 2.019531 5.707031 0.9375 3.1875 Z M 6.21875 -8.703125 C 5.632812 -8.128906 5.34375 -7.390625 5.34375 -6.484375 C 5.34375 -5.585938 5.625 -4.859375 6.1875 -4.296875 C 6.75 -3.734375 7.484375 -3.453125 8.390625 -3.453125 C 9.273438 -3.453125 10 -3.738281 10.5625 -4.3125 C 11.125 -4.882812 11.40625 -5.609375 11.40625 -6.484375 C 11.40625 -7.390625 11.113281 -8.128906 10.53125 -8.703125 C 9.945312 -9.273438 9.234375 -9.5625 8.390625 -9.5625 C 7.523438 -9.5625 6.800781 -9.273438 6.21875 -8.703125 Z M 6.21875 -8.703125 "/></g></g><g style="fill:#000000;fill-opacity:1;"><g transform="translate(59.93371, 25.884358)"><path style="stroke:none" d="M 1.953125 -20.25 C 2.472656 -20.78125 3.097656 -21.046875 3.828125 -21.046875 C 4.554688 -21.046875 5.179688 -20.78125 5.703125 -20.25 C 6.222656 -19.726562 6.484375 -19.101562 6.484375 -18.375 C 6.484375 -17.65625 6.222656 -17.03125 5.703125 -16.5 C 5.179688 -15.976562 4.554688 -15.71875 3.828125 -15.71875 C 3.097656 -15.71875 2.472656 -15.976562 1.953125 -16.5 C 1.429688 -17.03125 1.171875 -17.65625 1.171875 -18.375 C 1.171875 -19.101562 1.429688 -19.726562 1.953125 -20.25 Z M 1.515625 -13.015625 L 1.515625 0 L 6.015625 0 L 6.015625 -13.015625 Z M 1.515625 -13.015625 "/></g></g><g style="fill:#000000;fill-opacity:1;"><g transform="translate(66.322621, 25.884358)"><path style="stroke:none" d="M 8.4375 -9.71875 C 7.59375 -9.71875 6.863281 -9.40625 6.25 -8.78125 C 5.644531 -8.15625 5.34375 -7.398438 5.34375 -6.515625 C 5.34375 -5.617188 5.644531 -4.859375 6.25 -4.234375 C 6.863281 -3.609375 7.59375 -3.296875 8.4375 -3.296875 C 8.84375 -3.296875 9.226562 -3.34375 9.59375 -3.4375 C 9.957031 -3.539062 10.222656 -3.644531 10.390625 -3.75 L 10.625 -3.90625 L 12.140625 -0.78125 C 12.023438 -0.695312 11.859375 -0.59375 11.640625 -0.46875 C 11.429688 -0.34375 10.953125 -0.171875 10.203125 0.046875 C 9.453125 0.265625 8.644531 0.375 7.78125 0.375 C 5.875 0.375 4.195312 -0.296875 2.75 -1.640625 C 1.300781 -2.984375 0.578125 -4.59375 0.578125 -6.46875 C 0.578125 -8.363281 1.300781 -9.988281 2.75 -11.34375 C 4.195312 -12.707031 5.875 -13.390625 7.78125 -13.390625 C 8.644531 -13.390625 9.441406 -13.285156 10.171875 -13.078125 C 10.898438 -12.878906 11.414062 -12.679688 11.71875 -12.484375 L 12.140625 -12.171875 L 10.625 -9.109375 C 10.0625 -9.515625 9.332031 -9.71875 8.4375 -9.71875 Z M 8.4375 -9.71875 "/></g></g><g style="fill:#000000;fill-opacity:1;"><g transform="translate(77.503215, 25.884358)"><path style="stroke:none" d=""/></g></g><g style="fill:#000000;fill-opacity:1;"><g transform="translate(83.156895, 25.884358)"><path style="stroke:none" d="M 1.515625 -20.921875 L 9.15625 -20.921875 C 11.28125 -20.921875 13.003906 -20.367188 14.328125 -19.265625 C 15.648438 -18.171875 16.3125 -16.570312 16.3125 -14.46875 C 16.3125 -12.375 15.640625 -10.734375 14.296875 -9.546875 C 12.960938 -8.359375 11.25 -7.765625 9.15625 -7.765625 L 6.296875 -7.765625 L 6.296875 0 L 1.515625 0 Z M 6.296875 -11.5625 L 7.640625 -11.5625 C 8.703125 -11.5625 9.570312 -11.773438 10.25 -12.203125 C 10.9375 -12.640625 11.28125 -13.347656 11.28125 -14.328125 C 11.28125 -15.328125 10.9375 -16.039062 10.25 -16.46875 C 9.570312 -16.90625 8.703125 -17.125 7.640625 -17.125 L 6.296875 -17.125 Z M 6.296875 -11.5625 "/></g></g><g style="fill:#000000;fill-opacity:1;"><g transform="translate(98.774228, 25.884358)"><path style="stroke:none" d="M 2.40625 -1.609375 C 1.1875 -2.929688 0.578125 -4.554688 0.578125 -6.484375 C 0.578125 -8.421875 1.1875 -10.054688 2.40625 -11.390625 C 3.625 -12.722656 5.171875 -13.390625 7.046875 -13.390625 C 8.773438 -13.390625 10.195312 -12.847656 11.3125 -11.765625 L 11.3125 -13.015625 L 15.796875 -13.015625 L 15.796875 0 L 11.359375 0 L 11.359375 -1.46875 L 11.3125 -1.46875 C 10.195312 -0.238281 8.773438 0.375 7.046875 0.375 C 5.171875 0.375 3.625 -0.285156 2.40625 -1.609375 Z M 6.21875 -8.703125 C 5.632812 -8.128906 5.34375 -7.390625 5.34375 -6.484375 C 5.34375 -5.585938 5.625 -4.859375 6.1875 -4.296875 C 6.75 -3.734375 7.484375 -3.453125 8.390625 -3.453125 C 9.273438 -3.453125 10 -3.738281 10.5625 -4.3125 C 11.125 -4.882812 11.40625 -5.609375 11.40625 -6.484375 C 11.40625 -7.390625 11.113281 -8.128906 10.53125 -8.703125 C 9.945312 -9.273438 9.234375 -9.5625 8.390625 -9.5625 C 7.523438 -9.5625 6.800781 -9.273438 6.21875 -8.703125 Z M 6.21875 -8.703125 "/></g></g><g style="fill:#000000;fill-opacity:1;"><g transform="translate(114.822571, 25.884358)"><path style="stroke:none" d="M 1.953125 -20.25 C 2.472656 -20.78125 3.097656 -21.046875 3.828125 -21.046875 C 4.554688 -21.046875 5.179688 -20.78125 5.703125 -20.25 C 6.222656 -19.726562 6.484375 -19.101562 6.484375 -18.375 C 6.484375 -17.65625 6.222656 -17.03125 5.703125 -16.5 C 5.179688 -15.976562 4.554688 -15.71875 3.828125 -15.71875 C 3.097656 -15.71875 2.472656 -15.976562 1.953125 -16.5 C 1.429688 -17.03125 1.171875 -17.65625 1.171875 -18.375 C 1.171875 -19.101562 1.429688 -19.726562 1.953125 -20.25 Z M 1.515625 -13.015625 L 1.515625 0 L 6.015625 0 L 6.015625 -13.015625 Z M 1.515625 -13.015625 "/></g></g><g style="fill:#000000;fill-opacity:1;"><g transform="translate(121.211482, 25.884358)"><path style="stroke:none" d="M 1.515625 0 L 1.515625 -13.015625 L 6.015625 -13.015625 L 6.015625 -11.640625 L 6.0625 -11.640625 C 7.226562 -12.804688 8.46875 -13.390625 9.78125 -13.390625 C 10.425781 -13.390625 11.066406 -13.300781 11.703125 -13.125 C 12.335938 -12.957031 12.945312 -12.695312 13.53125 -12.34375 C 14.113281 -11.988281 14.585938 -11.484375 14.953125 -10.828125 C 15.316406 -10.179688 15.5 -9.429688 15.5 -8.578125 L 15.5 0 L 11 0 L 11 -7.359375 C 11 -8.035156 10.785156 -8.625 10.359375 -9.125 C 9.929688 -9.632812 9.367188 -9.890625 8.671875 -9.890625 C 7.992188 -9.890625 7.378906 -9.625 6.828125 -9.09375 C 6.285156 -8.570312 6.015625 -7.992188 6.015625 -7.359375 L 6.015625 0 Z M 1.515625 0 "/></g></g><g style="fill:#000000;fill-opacity:1;"><g transform="translate(136.702049, 25.884358)"><path style="stroke:none" d="M 2.28125 -13.015625 L 2.28125 -17.859375 L 6.765625 -17.859375 L 6.765625 -13.015625 L 9.515625 -13.015625 L 9.515625 -9.578125 L 6.765625 -9.578125 L 6.765625 -5.453125 C 6.765625 -4.253906 7.101562 -3.65625 7.78125 -3.65625 C 7.945312 -3.65625 8.125 -3.6875 8.3125 -3.75 C 8.5 -3.820312 8.644531 -3.890625 8.75 -3.953125 L 8.90625 -4.0625 L 10.015625 -0.4375 C 9.054688 0.101562 7.957031 0.375 6.71875 0.375 C 5.875 0.375 5.144531 0.226562 4.53125 -0.0625 C 3.925781 -0.351562 3.46875 -0.75 3.15625 -1.25 C 2.84375 -1.75 2.617188 -2.273438 2.484375 -2.828125 C 2.347656 -3.378906 2.28125 -3.96875 2.28125 -4.59375 L 2.28125 -9.578125 L 0.40625 -9.578125 L 0.40625 -13.015625 Z M 2.28125 -13.015625 "/></g></g><g style="fill:#000000;fill-opacity:1;"><g transform="translate(145.448774, 25.884358)"><path style="stroke:none" d="M 1.953125 -20.25 C 2.472656 -20.78125 3.097656 -21.046875 3.828125 -21.046875 C 4.554688 -21.046875 5.179688 -20.78125 5.703125 -20.25 C 6.222656 -19.726562 6.484375 -19.101562 6.484375 -18.375 C 6.484375 -17.65625 6.222656 -17.03125 5.703125 -16.5 C 5.179688 -15.976562 4.554688 -15.71875 3.828125 -15.71875 C 3.097656 -15.71875 2.472656 -15.976562 1.953125 -16.5 C 1.429688 -17.03125 1.171875 -17.65625 1.171875 -18.375 C 1.171875 -19.101562 1.429688 -19.726562 1.953125 -20.25 Z M 1.515625 -13.015625 L 1.515625 0 L 6.015625 0 L 6.015625 -13.015625 Z M 1.515625 -13.015625 "/></g></g><g style="fill:#000000;fill-opacity:1;"><g transform="translate(151.837684, 25.884358)"><path style="stroke:none" d="M 1.515625 0 L 1.515625 -13.015625 L 6.015625 -13.015625 L 6.015625 -11.640625 L 6.0625 -11.640625 C 7.226562 -12.804688 8.46875 -13.390625 9.78125 -13.390625 C 10.425781 -13.390625 11.066406 -13.300781 11.703125 -13.125 C 12.335938 -12.957031 12.945312 -12.695312 13.53125 -12.34375 C 14.113281 -11.988281 14.585938 -11.484375 14.953125 -10.828125 C 15.316406 -10.179688 15.5 -9.429688 15.5 -8.578125 L 15.5 0 L 11 0 L 11 -7.359375 C 11 -8.035156 10.785156 -8.625 10.359375 -9.125 C 9.929688 -9.632812 9.367188 -9.890625 8.671875 -9.890625 C 7.992188 -9.890625 7.378906 -9.625 6.828125 -9.09375 C 6.285156 -8.570312 6.015625 -7.992188 6.015625 -7.359375 L 6.015625 0 Z M 1.515625 0 "/></g></g><g style="fill:#000000;fill-opacity:1;"><g transform="translate(167.328252, 25.884358)"><path style="stroke:none" d="M 0.9375 3.1875 L 4.609375 1.390625 C 5.285156 2.503906 6.460938 3.0625 8.140625 3.0625 C 8.921875 3.0625 9.644531 2.8125 10.3125 2.3125 C 10.976562 1.820312 11.3125 1.0625 11.3125 0.03125 L 11.3125 -0.9375 C 10.519531 -0.0625 9.097656 0.375 7.046875 0.375 C 5.171875 0.375 3.625 -0.285156 2.40625 -1.609375 C 1.1875 -2.929688 0.578125 -4.554688 0.578125 -6.484375 C 0.578125 -8.421875 1.1875 -10.054688 2.40625 -11.390625 C 3.625 -12.722656 5.171875 -13.390625 7.046875 -13.390625 C 8.722656 -13.390625 10.117188 -12.875 11.234375 -11.84375 L 11.3125 -11.84375 L 11.3125 -13.015625 L 15.796875 -13.015625 L 15.796875 0.359375 C 15.796875 2.472656 15.09375 4.101562 13.6875 5.25 C 12.289062 6.394531 10.441406 6.96875 8.140625 6.96875 C 4.421875 6.96875 2.019531 5.707031 0.9375 3.1875 Z M 6.21875 -8.703125 C 5.632812 -8.128906 5.34375 -7.390625 5.34375 -6.484375 C 5.34375 -5.585938 5.625 -4.859375 6.1875 -4.296875 C 6.75 -3.734375 7.484375 -3.453125 8.390625 -3.453125 C 9.273438 -3.453125 10 -3.738281 10.5625 -4.3125 C 11.125 -4.882812 11.40625 -5.609375 11.40625 -6.484375 C 11.40625 -7.390625 11.113281 -8.128906 10.53125 -8.703125 C 9.945312 -9.273438 9.234375 -9.5625 8.390625 -9.5625 C 7.523438 -9.5625 6.800781 -9.273438 6.21875 -8.703125 Z M 6.21875 -8.703125 "/></g></g><g style="fill:#000000;fill-opacity:1;"><g transform="translate(5.120916, 32.372653)"><path style="stroke:none" d="M 2.9375 0 L 2.15625 0 C 2.125 0 2.109375 -0.015625 2.109375 -0.046875 L 2.109375 -0.21875 C 2.109375 -0.238281 2.125 -0.25 2.15625 -0.25 L 2.375 -0.25 L 2.375 -1.953125 L 1.71875 -0.34375 C 1.695312 -0.28125 1.648438 -0.25 1.578125 -0.25 C 1.503906 -0.25 1.453125 -0.28125 1.421875 -0.34375 L 0.765625 -1.953125 L 0.765625 -0.25 L 1 -0.25 C 1.03125 -0.25 1.046875 -0.238281 1.046875 -0.21875 L 1.046875 -0.046875 C 1.046875 -0.015625 1.03125 0 1 0 L 0.203125 0 C 0.179688 0 0.171875 -0.015625 0.171875 -0.046875 L 0.171875 -0.21875 C 0.171875 -0.238281 0.179688 -0.25 0.203125 -0.25 L 0.46875 -0.25 L 0.46875 -2.203125 L 0.203125 -2.203125 C 0.179688 -2.203125 0.171875 -2.210938 0.171875 -2.234375 L 0.171875 -2.421875 C 0.171875 -2.441406 0.179688 -2.453125 0.203125 -2.453125 L 0.734375 -2.453125 C 0.816406 -2.453125 0.867188 -2.414062 0.890625 -2.34375 L 1.40625 -1.109375 L 1.5625 -0.671875 L 1.578125 -0.671875 C 1.640625 -0.847656 1.691406 -0.992188 1.734375 -1.109375 L 2.25 -2.34375 C 2.28125 -2.414062 2.335938 -2.453125 2.421875 -2.453125 L 2.9375 -2.453125 C 2.96875 -2.453125 2.984375 -2.441406 2.984375 -2.421875 L 2.984375 -2.234375 C 2.984375 -2.210938 2.96875 -2.203125 2.9375 -2.203125 L 2.671875 -2.203125 L 2.671875 -0.25 L 2.9375 -0.25 C 2.96875 -0.25 2.984375 -0.238281 2.984375 -0.21875 L 2.984375 -0.046875 C 2.984375 -0.015625 2.96875 0 2.9375 0 Z M 2.9375 0 "/></g></g><g style="fill:#000000;fill-opacity:1;"><g transform="translate(8.438586, 32.372653)"><path style="stroke:none" d="M 2.625 0 L 1.859375 0 C 1.828125 0 1.8125 -0.015625 1.8125 -0.046875 L 1.8125 -0.21875 C 1.8125 -0.238281 1.828125 -0.25 1.859375 -0.25 L 2.09375 -0.25 L 1.875 -0.84375 L 0.921875 -0.84375 L 0.6875 -0.25 L 0.9375 -0.25 C 0.957031 -0.25 0.96875 -0.238281 0.96875 -0.21875 L 0.96875 -0.046875 C 0.96875 -0.015625 0.957031 0 0.9375 0 L 0.171875 0 C 0.140625 0 0.125 -0.015625 0.125 -0.046875 L 0.125 -0.21875 C 0.125 -0.238281 0.140625 -0.25 0.171875 -0.25 L 0.390625 -0.25 L 1.125 -2.203125 L 0.9375 -2.203125 C 0.914062 -2.203125 0.90625 -2.210938 0.90625 -2.234375 L 0.90625 -2.421875 C 0.90625 -2.441406 0.914062 -2.453125 0.9375 -2.453125 L 1.40625 -2.453125 C 1.457031 -2.453125 1.5 -2.441406 1.53125 -2.421875 C 1.5625 -2.398438 1.585938 -2.363281 1.609375 -2.3125 L 2.390625 -0.25 L 2.625 -0.25 C 2.65625 -0.25 2.671875 -0.238281 2.671875 -0.21875 L 2.671875 -0.046875 C 2.671875 -0.015625 2.65625 0 2.625 0 Z M 1.78125 -1.078125 L 1.40625 -2.09375 L 1.390625 -2.09375 L 1 -1.078125 Z M 1.78125 -1.078125 "/></g></g><g style="fill:#000000;fill-opacity:1;"><g transform="translate(11.489198, 32.372653)"><path style="stroke:none" d="M 2.359375 0 L 2.171875 0 C 2.148438 0 2.140625 -0.015625 2.140625 -0.046875 L 2.140625 -0.28125 C 1.941406 -0.0703125 1.671875 0.03125 1.328125 0.03125 C 0.992188 0.03125 0.71875 -0.0820312 0.5 -0.3125 C 0.28125 -0.550781 0.171875 -0.859375 0.171875 -1.234375 C 0.171875 -1.492188 0.222656 -1.71875 0.328125 -1.90625 C 0.441406 -2.101562 0.585938 -2.25 0.765625 -2.34375 C 0.941406 -2.4375 1.128906 -2.484375 1.328125 -2.484375 C 1.679688 -2.484375 1.929688 -2.375 2.078125 -2.15625 L 2.078125 -2.421875 C 2.078125 -2.441406 2.09375 -2.453125 2.125 -2.453125 L 2.3125 -2.453125 C 2.34375 -2.453125 2.359375 -2.441406 2.359375 -2.421875 L 2.359375 -1.703125 C 2.359375 -1.679688 2.34375 -1.671875 2.3125 -1.671875 L 2.09375 -1.671875 C 2.070312 -1.671875 2.0625 -1.679688 2.0625 -1.703125 L 2.0625 -1.75 C 2.0625 -1.851562 1.988281 -1.953125 1.84375 -2.046875 C 1.707031 -2.148438 1.53125 -2.203125 1.3125 -2.203125 C 1.101562 -2.203125 0.910156 -2.113281 0.734375 -1.9375 C 0.566406 -1.757812 0.484375 -1.519531 0.484375 -1.21875 C 0.484375 -0.925781 0.566406 -0.691406 0.734375 -0.515625 C 0.910156 -0.347656 1.101562 -0.265625 1.3125 -0.265625 C 1.53125 -0.265625 1.703125 -0.296875 1.828125 -0.359375 C 1.953125 -0.429688 2.046875 -0.515625 2.109375 -0.609375 L 2.109375 -0.875 L 1.46875 -0.875 C 1.445312 -0.875 1.4375 -0.890625 1.4375 -0.921875 L 1.4375 -1.078125 C 1.4375 -1.109375 1.445312 -1.125 1.46875 -1.125 L 2.359375 -1.125 C 2.390625 -1.125 2.40625 -1.109375 2.40625 -1.078125 L 2.40625 -0.046875 C 2.40625 -0.015625 2.390625 0 2.359375 0 Z M 2.359375 0 "/></g></g><g style="fill:#000000;fill-opacity:1;"><g transform="translate(14.228245, 32.372653)"><path style="stroke:none" d="M 1.03125 0 L 0.203125 0 C 0.179688 0 0.171875 -0.015625 0.171875 -0.046875 L 0.171875 -0.21875 C 0.171875 -0.238281 0.179688 -0.25 0.203125 -0.25 L 0.46875 -0.25 L 0.46875 -2.203125 L 0.203125 -2.203125 C 0.179688 -2.203125 0.171875 -2.210938 0.171875 -2.234375 L 0.171875 -2.421875 C 0.171875 -2.441406 0.179688 -2.453125 0.203125 -2.453125 L 1.03125 -2.453125 C 1.0625 -2.453125 1.078125 -2.441406 1.078125 -2.421875 L 1.078125 -2.234375 C 1.078125 -2.210938 1.0625 -2.203125 1.03125 -2.203125 L 0.765625 -2.203125 L 0.765625 -0.25 L 1.03125 -0.25 C 1.0625 -0.25 1.078125 -0.238281 1.078125 -0.21875 L 1.078125 -0.046875 C 1.078125 -0.015625 1.0625 0 1.03125 0 Z M 1.03125 0 "/></g></g><g style="fill:#000000;fill-opacity:1;"><g transform="translate(15.638854, 32.372653)"><path style="stroke:none" d="M 2.390625 -0.625 C 2.398438 -0.613281 2.40625 -0.597656 2.40625 -0.578125 C 2.40625 -0.566406 2.398438 -0.550781 2.390625 -0.53125 C 2.378906 -0.507812 2.359375 -0.476562 2.328125 -0.4375 C 2.304688 -0.40625 2.265625 -0.359375 2.203125 -0.296875 C 2.140625 -0.242188 2.070312 -0.191406 2 -0.140625 C 1.925781 -0.0976562 1.828125 -0.0546875 1.703125 -0.015625 C 1.585938 0.015625 1.460938 0.03125 1.328125 0.03125 C 0.992188 0.03125 0.71875 -0.0820312 0.5 -0.3125 C 0.28125 -0.550781 0.171875 -0.859375 0.171875 -1.234375 C 0.171875 -1.617188 0.28125 -1.921875 0.5 -2.140625 C 0.726562 -2.367188 1 -2.484375 1.3125 -2.484375 C 1.664062 -2.484375 1.921875 -2.359375 2.078125 -2.109375 L 2.078125 -2.421875 C 2.078125 -2.441406 2.09375 -2.453125 2.125 -2.453125 L 2.3125 -2.453125 C 2.34375 -2.453125 2.359375 -2.441406 2.359375 -2.421875 L 2.359375 -1.671875 C 2.359375 -1.640625 2.34375 -1.625 2.3125 -1.625 L 2.09375 -1.625 C 2.070312 -1.625 2.0625 -1.640625 2.0625 -1.671875 L 2.0625 -1.703125 C 2.0625 -1.804688 1.988281 -1.914062 1.84375 -2.03125 C 1.695312 -2.144531 1.519531 -2.203125 1.3125 -2.203125 C 1.101562 -2.203125 0.910156 -2.113281 0.734375 -1.9375 C 0.566406 -1.769531 0.484375 -1.53125 0.484375 -1.21875 C 0.484375 -0.914062 0.566406 -0.679688 0.734375 -0.515625 C 0.910156 -0.347656 1.113281 -0.265625 1.34375 -0.265625 C 1.59375 -0.265625 1.789062 -0.320312 1.9375 -0.4375 C 2.039062 -0.519531 2.117188 -0.601562 2.171875 -0.6875 C 2.191406 -0.726562 2.210938 -0.738281 2.234375 -0.71875 Z M 2.390625 -0.625 "/></g></g><g style="fill:#000000;fill-opacity:1;"><g transform="translate(18.384748, 32.372653)"><path style="stroke:none" d=""/></g></g><g style="fill:#000000;fill-opacity:1;"><g transform="translate(19.62759, 32.372653)"><path style="stroke:none" d="M 2.59375 0 L 1.78125 0 C 1.75 0 1.734375 -0.015625 1.734375 -0.046875 L 1.734375 -0.21875 C 1.734375 -0.238281 1.75 -0.25 1.78125 -0.25 L 2.046875 -0.25 L 2.046875 -1.09375 L 0.765625 -1.09375 L 0.765625 -0.25 L 1.03125 -0.25 C 1.0625 -0.25 1.078125 -0.238281 1.078125 -0.21875 L 1.078125 -0.046875 C 1.078125 -0.015625 1.0625 0 1.03125 0 L 0.203125 0 C 0.179688 0 0.171875 -0.015625 0.171875 -0.046875 L 0.171875 -0.21875 C 0.171875 -0.238281 0.179688 -0.25 0.203125 -0.25 L 0.46875 -0.25 L 0.46875 -2.203125 L 0.203125 -2.203125 C 0.179688 -2.203125 0.171875 -2.210938 0.171875 -2.234375 L 0.171875 -2.421875 C 0.171875 -2.441406 0.179688 -2.453125 0.203125 -2.453125 L 1.03125 -2.453125 C 1.0625 -2.453125 1.078125 -2.441406 1.078125 -2.421875 L 1.078125 -2.234375 C 1.078125 -2.210938 1.0625 -2.203125 1.03125 -2.203125 L 0.765625 -2.203125 L 0.765625 -1.34375 L 2.046875 -1.34375 L 2.046875 -2.203125 L 1.78125 -2.203125 C 1.75 -2.203125 1.734375 -2.210938 1.734375 -2.234375 L 1.734375 -2.421875 C 1.734375 -2.441406 1.75 -2.453125 1.78125 -2.453125 L 2.59375 -2.453125 C 2.625 -2.453125 2.640625 -2.441406 2.640625 -2.421875 L 2.640625 -2.234375 C 2.640625 -2.210938 2.625 -2.203125 2.59375 -2.203125 L 2.34375 -2.203125 L 2.34375 -0.25 L 2.59375 -0.25 C 2.625 -0.25 2.640625 -0.238281 2.640625 -0.21875 L 2.640625 -0.046875 C 2.640625 -0.015625 2.625 0 2.59375 0 Z M 2.59375 0 "/></g></g><g style="fill:#000000;fill-opacity:1;"><g transform="translate(22.606304, 32.372653)"><path style="stroke:none" d="M 2.625 0 L 1.859375 0 C 1.828125 0 1.8125 -0.015625 1.8125 -0.046875 L 1.8125 -0.21875 C 1.8125 -0.238281 1.828125 -0.25 1.859375 -0.25 L 2.09375 -0.25 L 1.875 -0.84375 L 0.921875 -0.84375 L 0.6875 -0.25 L 0.9375 -0.25 C 0.957031 -0.25 0.96875 -0.238281 0.96875 -0.21875 L 0.96875 -0.046875 C 0.96875 -0.015625 0.957031 0 0.9375 0 L 0.171875 0 C 0.140625 0 0.125 -0.015625 0.125 -0.046875 L 0.125 -0.21875 C 0.125 -0.238281 0.140625 -0.25 0.171875 -0.25 L 0.390625 -0.25 L 1.125 -2.203125 L 0.9375 -2.203125 C 0.914062 -2.203125 0.90625 -2.210938 0.90625 -2.234375 L 0.90625 -2.421875 C 0.90625 -2.441406 0.914062 -2.453125 0.9375 -2.453125 L 1.40625 -2.453125 C 1.457031 -2.453125 1.5 -2.441406 1.53125 -2.421875 C 1.5625 -2.398438 1.585938 -2.363281 1.609375 -2.3125 L 2.390625 -0.25 L 2.625 -0.25 C 2.65625 -0.25 2.671875 -0.238281 2.671875 -0.21875 L 2.671875 -0.046875 C 2.671875 -0.015625 2.65625 0 2.625 0 Z M 1.78125 -1.078125 L 1.40625 -2.09375 L 1.390625 -2.09375 L 1 -1.078125 Z M 1.78125 -1.078125 "/></g></g><g style="fill:#000000;fill-opacity:1;"><g transform="translate(25.656916, 32.372653)"><path style="stroke:none" d="M 2.296875 0 L 2.109375 0 C 2.066406 0 2.03125 -0.00390625 2 -0.015625 C 1.976562 -0.0351562 1.957031 -0.0664062 1.9375 -0.109375 L 0.9375 -1.65625 L 0.765625 -1.9375 L 0.765625 -0.25 L 1.03125 -0.25 C 1.0625 -0.25 1.078125 -0.238281 1.078125 -0.21875 L 1.078125 -0.046875 C 1.078125 -0.015625 1.0625 0 1.03125 0 L 0.203125 0 C 0.179688 0 0.171875 -0.015625 0.171875 -0.046875 L 0.171875 -0.21875 C 0.171875 -0.238281 0.179688 -0.25 0.203125 -0.25 L 0.46875 -0.25 L 0.46875 -2.203125 L 0.203125 -2.203125 C 0.179688 -2.203125 0.171875 -2.210938 0.171875 -2.234375 L 0.171875 -2.421875 C 0.171875 -2.441406 0.179688 -2.453125 0.203125 -2.453125 L 0.6875 -2.453125 C 0.75 -2.453125 0.804688 -2.414062 0.859375 -2.34375 L 1.84375 -0.8125 L 2.03125 -0.484375 L 2.046875 -0.484375 L 2.046875 -2.203125 L 1.78125 -2.203125 C 1.75 -2.203125 1.734375 -2.210938 1.734375 -2.234375 L 1.734375 -2.421875 C 1.734375 -2.441406 1.75 -2.453125 1.78125 -2.453125 L 2.59375 -2.453125 C 2.625 -2.453125 2.640625 -2.441406 2.640625 -2.421875 L 2.640625 -2.234375 C 2.640625 -2.210938 2.625 -2.203125 2.59375 -2.203125 L 2.34375 -2.203125 L 2.34375 -0.046875 C 2.34375 -0.015625 2.328125 0 2.296875 0 Z M 2.296875 0 "/></g></g><g style="fill:#000000;fill-opacity:1;"><g transform="translate(28.63563, 32.372653)"><path style="stroke:none" d="M 1.171875 0 L 0.1875 0 C 0.15625 0 0.140625 -0.015625 0.140625 -0.046875 L 0.140625 -0.21875 C 0.140625 -0.238281 0.15625 -0.25 0.1875 -0.25 L 0.453125 -0.25 L 0.453125 -2.203125 L 0.1875 -2.203125 C 0.15625 -2.203125 0.140625 -2.210938 0.140625 -2.234375 L 0.140625 -2.421875 C 0.140625 -2.441406 0.15625 -2.453125 0.1875 -2.453125 L 1.109375 -2.453125 C 1.492188 -2.453125 1.796875 -2.34375 2.015625 -2.125 C 2.234375 -1.90625 2.34375 -1.601562 2.34375 -1.21875 C 2.34375 -0.84375 2.238281 -0.546875 2.03125 -0.328125 C 1.820312 -0.109375 1.535156 0 1.171875 0 Z M 0.75 -0.25 L 1.09375 -0.25 C 1.726562 -0.257812 2.046875 -0.582031 2.046875 -1.21875 C 2.046875 -1.53125 1.960938 -1.769531 1.796875 -1.9375 C 1.628906 -2.113281 1.390625 -2.203125 1.078125 -2.203125 L 0.75 -2.203125 Z M 0.75 -0.25 "/></g></g><g style="fill:#000000;fill-opacity:1;"><g transform="translate(31.340439, 32.372653)"><path style="stroke:none" d="M 1.703125 0 L 0.890625 0 C 0.859375 0 0.84375 -0.015625 0.84375 -0.046875 L 0.84375 -0.21875 C 0.84375 -0.238281 0.859375 -0.25 0.890625 -0.25 L 1.15625 -0.25 L 1.15625 -0.984375 L 1.015625 -1.21875 C 0.710938 -1.75 0.519531 -2.078125 0.4375 -2.203125 L 0.203125 -2.203125 C 0.179688 -2.203125 0.171875 -2.210938 0.171875 -2.234375 L 0.171875 -2.421875 C 0.171875 -2.441406 0.179688 -2.453125 0.203125 -2.453125 L 0.984375 -2.453125 C 1.003906 -2.453125 1.015625 -2.441406 1.015625 -2.421875 L 1.015625 -2.234375 C 1.015625 -2.210938 1.003906 -2.203125 0.984375 -2.203125 L 0.75 -2.203125 L 1.296875 -1.25 L 1.3125 -1.25 L 1.84375 -2.203125 L 1.625 -2.203125 C 1.59375 -2.203125 1.578125 -2.210938 1.578125 -2.234375 L 1.578125 -2.421875 C 1.578125 -2.441406 1.59375 -2.453125 1.625 -2.453125 L 2.390625 -2.453125 C 2.421875 -2.453125 2.4375 -2.441406 2.4375 -2.421875 L 2.4375 -2.234375 C 2.4375 -2.210938 2.421875 -2.203125 2.390625 -2.203125 L 2.15625 -2.203125 C 2.039062 -2.035156 1.894531 -1.789062 1.71875 -1.46875 C 1.539062 -1.15625 1.453125 -1 1.453125 -1 L 1.453125 -0.25 L 1.703125 -0.25 C 1.734375 -0.25 1.75 -0.238281 1.75 -0.21875 L 1.75 -0.046875 C 1.75 -0.015625 1.734375 0 1.703125 0 Z M 1.703125 0 "/></g></g><g style="fill:#000000;fill-opacity:1;"><g transform="translate(34.1103, 32.372653)"><path style="stroke:none" d="M 2.9375 0 L 2.15625 0 C 2.125 0 2.109375 -0.015625 2.109375 -0.046875 L 2.109375 -0.21875 C 2.109375 -0.238281 2.125 -0.25 2.15625 -0.25 L 2.375 -0.25 L 2.375 -1.953125 L 1.71875 -0.34375 C 1.695312 -0.28125 1.648438 -0.25 1.578125 -0.25 C 1.503906 -0.25 1.453125 -0.28125 1.421875 -0.34375 L 0.765625 -1.953125 L 0.765625 -0.25 L 1 -0.25 C 1.03125 -0.25 1.046875 -0.238281 1.046875 -0.21875 L 1.046875 -0.046875 C 1.046875 -0.015625 1.03125 0 1 0 L 0.203125 0 C 0.179688 0 0.171875 -0.015625 0.171875 -0.046875 L 0.171875 -0.21875 C 0.171875 -0.238281 0.179688 -0.25 0.203125 -0.25 L 0.46875 -0.25 L 0.46875 -2.203125 L 0.203125 -2.203125 C 0.179688 -2.203125 0.171875 -2.210938 0.171875 -2.234375 L 0.171875 -2.421875 C 0.171875 -2.441406 0.179688 -2.453125 0.203125 -2.453125 L 0.734375 -2.453125 C 0.816406 -2.453125 0.867188 -2.414062 0.890625 -2.34375 L 1.40625 -1.109375 L 1.5625 -0.671875 L 1.578125 -0.671875 C 1.640625 -0.847656 1.691406 -0.992188 1.734375 -1.109375 L 2.25 -2.34375 C 2.28125 -2.414062 2.335938 -2.453125 2.421875 -2.453125 L 2.9375 -2.453125 C 2.96875 -2.453125 2.984375 -2.441406 2.984375 -2.421875 L 2.984375 -2.234375 C 2.984375 -2.210938 2.96875 -2.203125 2.9375 -2.203125 L 2.671875 -2.203125 L 2.671875 -0.25 L 2.9375 -0.25 C 2.96875 -0.25 2.984375 -0.238281 2.984375 -0.21875 L 2.984375 -0.046875 C 2.984375 -0.015625 2.96875 0 2.9375 0 Z M 2.9375 0 "/></g></g><g style="fill:#000000;fill-opacity:1;"><g transform="translate(37.427969, 32.372653)"><path style="stroke:none" d="M 2.625 0 L 1.859375 0 C 1.828125 0 1.8125 -0.015625 1.8125 -0.046875 L 1.8125 -0.21875 C 1.8125 -0.238281 1.828125 -0.25 1.859375 -0.25 L 2.09375 -0.25 L 1.875 -0.84375 L 0.921875 -0.84375 L 0.6875 -0.25 L 0.9375 -0.25 C 0.957031 -0.25 0.96875 -0.238281 0.96875 -0.21875 L 0.96875 -0.046875 C 0.96875 -0.015625 0.957031 0 0.9375 0 L 0.171875 0 C 0.140625 0 0.125 -0.015625 0.125 -0.046875 L 0.125 -0.21875 C 0.125 -0.238281 0.140625 -0.25 0.171875 -0.25 L 0.390625 -0.25 L 1.125 -2.203125 L 0.9375 -2.203125 C 0.914062 -2.203125 0.90625 -2.210938 0.90625 -2.234375 L 0.90625 -2.421875 C 0.90625 -2.441406 0.914062 -2.453125 0.9375 -2.453125 L 1.40625 -2.453125 C 1.457031 -2.453125 1.5 -2.441406 1.53125 -2.421875 C 1.5625 -2.398438 1.585938 -2.363281 1.609375 -2.3125 L 2.390625 -0.25 L 2.625 -0.25 C 2.65625 -0.25 2.671875 -0.238281 2.671875 -0.21875 L 2.671875 -0.046875 C 2.671875 -0.015625 2.65625 0 2.625 0 Z M 1.78125 -1.078125 L 1.40625 -2.09375 L 1.390625 -2.09375 L 1 -1.078125 Z M 1.78125 -1.078125 "/></g></g><g style="fill:#000000;fill-opacity:1;"><g transform="translate(40.478583, 32.372653)"><path style="stroke:none" d="M 2.296875 0 L 2.109375 0 C 2.066406 0 2.03125 -0.00390625 2 -0.015625 C 1.976562 -0.0351562 1.957031 -0.0664062 1.9375 -0.109375 L 0.9375 -1.65625 L 0.765625 -1.9375 L 0.765625 -0.25 L 1.03125 -0.25 C 1.0625 -0.25 1.078125 -0.238281 1.078125 -0.21875 L 1.078125 -0.046875 C 1.078125 -0.015625 1.0625 0 1.03125 0 L 0.203125 0 C 0.179688 0 0.171875 -0.015625 0.171875 -0.046875 L 0.171875 -0.21875 C 0.171875 -0.238281 0.179688 -0.25 0.203125 -0.25 L 0.46875 -0.25 L 0.46875 -2.203125 L 0.203125 -2.203125 C 0.179688 -2.203125 0.171875 -2.210938 0.171875 -2.234375 L 0.171875 -2.421875 C 0.171875 -2.441406 0.179688 -2.453125 0.203125 -2.453125 L 0.6875 -2.453125 C 0.75 -2.453125 0.804688 -2.414062 0.859375 -2.34375 L 1.84375 -0.8125 L 2.03125 -0.484375 L 2.046875 -0.484375 L 2.046875 -2.203125 L 1.78125 -2.203125 C 1.75 -2.203125 1.734375 -2.210938 1.734375 -2.234375 L 1.734375 -2.421875 C 1.734375 -2.441406 1.75 -2.453125 1.78125 -2.453125 L 2.59375 -2.453125 C 2.625 -2.453125 2.640625 -2.441406 2.640625 -2.421875 L 2.640625 -2.234375 C 2.640625 -2.210938 2.625 -2.203125 2.59375 -2.203125 L 2.34375 -2.203125 L 2.34375 -0.046875 C 2.34375 -0.015625 2.328125 0 2.296875 0 Z M 2.296875 0 "/></g></g></g></svg>